# xmcd CD database file
#
# Track frame offsets:
#	150
#	10501
#	22176
#	33872
#	42831
#	52183
#	62313
#	77838
#	89139
#	100522
#	115652
#	127297
#	138529
#	147629
#	157496
#	165528
#	176416
#	190696
#	202889
#	215811
#
# Disc length: 2998 seconds
#
# Revision: 0
# Processed by: cddbd v1.5.2PL0 Copyright (c) Steve Scherf et al.
# Submitted via: CDex 1.95
#
DISCID=200bb414
DTITLE=Red Simpson - 20 GreatTruck Hits
DYEAR=1973
DGENRE=Country
TTITLE0=Truck Drivin' Man
TTITLE1=Nitro Express
TTITLE2=Give Me Forty Acres
TTITLE3=Motivatin' Man
TTITLE4=Big Mack
TTITLE5=Six Days On The Road
TTITLE6=Sleeper, Five-By-Two
TTITLE7=Take Me Home
TTITLE8=A Tombstone Every Mile
TTITLE9=Born To Be A Trucker
TTITLE10=Diesel Smoke, Dangerous Curves
TTITLE11=Truck Drivin' Fool
TTITLE12=Hold On Ma'm
TTITLE13=Truckin' On Down The Road
TTITLE14=Fur Coats And Fancy Clothes
TTITLE15=Country Western Truck Drivin' Singer
TTITLE16=I'm A Truck
TTITLE17=Milesaver Man
TTITLE18=Awful Lot To Learn About Truck Drivin'
TTITLE19=If The World Ran Out Of Diesel
EXTD=YEAR: 1973
EXTT0=
EXTT1=
EXTT2=
EXTT3=
EXTT4=
EXTT5=
EXTT6=
EXTT7=
EXTT8=
EXTT9=
EXTT10=
EXTT11=
EXTT12=
EXTT13=
EXTT14=
EXTT15=
EXTT16=
EXTT17=
EXTT18=
EXTT19=
PLAYORDER=
